<?xml version="1.0" encoding="UTF-8" standalone="no"?>
<!-- Created with Inkscape (http://www.inkscape.org/) -->

<svg
   xmlns:dc="http://purl.org/dc/elements/1.1/"
   xmlns:cc="http://creativecommons.org/ns#"
   xmlns:rdf="http://www.w3.org/1999/02/22-rdf-syntax-ns#"
   xmlns:svg="http://www.w3.org/2000/svg"
   xmlns="http://www.w3.org/2000/svg"
   xmlns:sodipodi="http://sodipodi.sourceforge.net/DTD/sodipodi-0.dtd"
   xmlns:inkscape="http://www.inkscape.org/namespaces/inkscape"
   width="210mm"
   height="297mm"
   viewBox="0 0 189 267.29999"
   version="1.1"
   id="svg8"
   inkscape:version="0.92.3pre0 (0ab9bec, 2018-03-03)"
   sodipodi:docname="logo.svg">
  <defs
     id="defs2" />
  <sodipodi:namedview
     id="base"
     pagecolor="#ffffff"
     bordercolor="#666666"
     borderopacity="1.0"
     inkscape:pageopacity="0.0"
     inkscape:pageshadow="2"
     inkscape:zoom="0.58242188"
     inkscape:cx="-75.137637"
     inkscape:cy="822.44091"
     inkscape:document-units="mm"
     inkscape:current-layer="layer1"
     showgrid="false"
     inkscape:pagecheckerboard="true"
     scale-x="0.9"
     showborder="false"
     inkscape:snap-bbox="true"
     inkscape:bbox-paths="true"
     inkscape:bbox-nodes="true"
     inkscape:snap-bbox-edge-midpoints="true"
     inkscape:snap-bbox-midpoints="true"
     inkscape:object-paths="true"
     inkscape:snap-intersection-paths="true"
     inkscape:snap-midpoints="false"
     inkscape:snap-object-midpoints="true"
     inkscape:snap-center="true"
     inkscape:window-width="1920"
     inkscape:window-height="1023"
     inkscape:window-x="0"
     inkscape:window-y="0"
     inkscape:window-maximized="1"
     inkscape:snap-global="false" />
  <metadata
     id="metadata5">
    <rdf:RDF>
      <cc:Work
         rdf:about="">
        <dc:format>image/svg+xml</dc:format>
        <dc:type
           rdf:resource="http://purl.org/dc/dcmitype/StillImage" />
        <dc:title></dc:title>
      </cc:Work>
    </rdf:RDF>
  </metadata>
  <g
     inkscape:label="Calque 1"
     inkscape:groupmode="layer"
     id="layer1">
    <path
       style="opacity:1;fill:#889c46;fill-opacity:1;fill-rule:nonzero;stroke:none;stroke-width:4.54149961;stroke-linecap:round;stroke-linejoin:round;stroke-miterlimit:4;stroke-dasharray:none;stroke-dashoffset:0;stroke-opacity:1;paint-order:stroke markers fill"
       d="m 76.394531,382.72852 v 156.46875 c 0,2.09376 0.15465,4.14945 0.433594,6.16406 8.94e-4,0.006 0.0011,0.0131 0.002,0.0195 0.08513,0.61282 0.185109,1.21986 0.294922,1.82422 0.01572,0.0865 0.03066,0.17344 0.04687,0.25976 0.109941,0.58521 0.232611,1.16551 0.365234,1.74219 0.01947,0.0847 0.03864,0.16944 0.05859,0.25391 0.132043,0.55901 0.274795,1.11361 0.427735,1.66406 0.03175,0.11427 0.06501,0.22791 0.09766,0.3418 0.156291,0.54537 0.321631,1.08665 0.498047,1.62304 0.02833,0.0861 0.05709,0.17191 0.08594,0.25782 0.191029,0.56893 0.392258,1.13322 0.605469,1.6914 0.0077,0.0203 0.01567,0.0403 0.02344,0.0606 0.230263,0.60015 0.471268,1.19418 0.726563,1.78125 1.568717,3.60736 3.602936,6.95875 6.029297,9.98437 0.404606,0.50454 0.82008,0.99846 1.246094,1.48438 0.419965,0.47902 0.850921,0.94795 1.291015,1.4082 0.01114,0.0117 0.02205,0.0235 0.0332,0.0352 0.434385,0.45329 0.878742,0.89765 1.332032,1.33203 0.01597,0.0153 0.03283,0.0296 0.04883,0.0449 0.457428,0.43704 0.92249,0.86604 1.398437,1.2832 0.0018,0.002 0.0041,0.002 0.0059,0.004 3.885802,3.40481 8.373464,6.13344 13.292968,8.01367 0.58573,0.22387 1.17784,0.43535 1.77539,0.63477 0.0489,0.0163 0.0975,0.0327 0.14649,0.0488 0.58763,0.19382 1.18088,0.37528 1.77929,0.54492 0.0417,0.0118 0.0833,0.0235 0.125,0.0352 0.59021,0.16542 1.18508,0.31956 1.78516,0.46093 0.0747,0.0176 0.14981,0.0336 0.22461,0.0508 0.57865,0.13314 1.16081,0.25689 1.74805,0.36719 0.0935,0.0176 0.18756,0.0338 0.28125,0.0508 0.59282,0.10739 1.1881,0.20542 1.78906,0.28906 0.009,0.001 0.0169,0.003 0.0254,0.004 v 33.29102 c 0,11.0979 8.9353,20.0332 20.0332,20.0332 11.09791,0 20.03125,-8.9353 20.03125,-20.0332 v -32.85743 h 42.14453 v 32.85743 c 0,11.09787 8.93335,20.0332 20.03125,20.0332 11.09791,0 20.03321,-8.93533 20.03321,-20.0332 v -33.29102 c 0.008,-0.001 0.0169,-0.003 0.0254,-0.004 0.60096,-0.0836 1.19623,-0.18167 1.78906,-0.28906 0.0937,-0.017 0.18777,-0.0332 0.28125,-0.0508 0.58724,-0.1103 1.16939,-0.23405 1.74805,-0.36719 0.0748,-0.0172 0.14996,-0.0332 0.22461,-0.0508 0.60008,-0.14137 1.19494,-0.29551 1.78515,-0.46093 0.0417,-0.0117 0.0833,-0.0233 0.125,-0.0352 0.59842,-0.16964 1.19166,-0.3511 1.7793,-0.54492 0.0489,-0.0162 0.0976,-0.0325 0.14648,-0.0488 0.59755,-0.19942 1.18967,-0.4109 1.77539,-0.63477 4.91951,-1.88023 9.40717,-4.60886 13.29297,-8.01367 0.002,-0.002 0.004,-0.002 0.006,-0.004 0.47595,-0.41715 0.94101,-0.84616 1.39844,-1.2832 0.016,-0.0153 0.0329,-0.0296 0.0488,-0.0449 0.45329,-0.43438 0.89764,-0.87874 1.33203,-1.33203 0.0111,-0.0116 0.0221,-0.0235 0.0332,-0.0352 0.4401,-0.46025 0.87105,-0.92918 1.29102,-1.4082 0.42601,-0.48592 0.84148,-0.97984 1.24609,-1.48438 2.42636,-3.02562 4.46058,-6.37701 6.0293,-9.98437 0.25529,-0.58707 0.4963,-1.1811 0.72656,-1.78125 0.008,-0.0202 0.0157,-0.0403 0.0234,-0.0606 0.21321,-0.55818 0.41444,-1.12247 0.60547,-1.6914 0.0289,-0.0859 0.0576,-0.17167 0.0859,-0.25782 0.17642,-0.53639 0.34176,-1.07767 0.49805,-1.62304 0.0326,-0.11389 0.0659,-0.22753 0.0977,-0.3418 0.15294,-0.55045 0.29569,-1.10505 0.42773,-1.66406 0.0199,-0.0845 0.0391,-0.16926 0.0586,-0.25391 0.13262,-0.57668 0.25529,-1.15698 0.36523,-1.74219 0.0162,-0.0863 0.0312,-0.17326 0.0469,-0.25976 0.10981,-0.60436 0.20979,-1.2114 0.29492,-1.82422 8.9e-4,-0.006 0.001,-0.0131 0.002,-0.0195 0.27894,-2.01461 0.43359,-4.0703 0.43359,-6.16406 V 382.72852 h -0.01 -0.39844 c -15.61503,21.51774 -53.80287,31.99104 -98.67969,32.14843 h -0.0723 -0.0723 C 130.60547,414.71957 92.408504,404.2464 76.789062,382.72852 h -0.384765 z m -32.392578,0.41601 c -11.097906,0 -20.033203,8.9353 -20.033203,20.0332 v 117.76563 c 0,11.09791 8.935297,20.03125 20.033203,20.03125 11.097906,0 20.03125,-8.93334 20.03125,-20.03125 V 403.17773 c 0,-11.0979 -8.933344,-20.0332 -20.03125,-20.0332 z m 263.105467,0 c -11.0979,0 -20.03125,8.93531 -20.03125,20.0332 v 117.76563 c 0,11.09791 8.93335,20.03125 20.03125,20.03125 11.09791,0 20.03321,-8.93334 20.0332,-20.03125 V 403.17773 c 0,-11.09789 -8.93529,-20.0332 -20.0332,-20.0332 z"
       transform="scale(0.238125)"
       id="rect815"
       inkscape:connector-curvature="0"
       sodipodi:nodetypes="csccccccccccscccscccccccccscccccccsssccsssccccccccccccccccccscccccccccccccscccccccccssssssssssssss" />
    <g
       id="g929"
       transform="translate(0,-1.9420654)">
      <path
         inkscape:connector-curvature="0"
         id="path80"
         style="fill:#ffffff;fill-opacity:1;fill-rule:nonzero;stroke:none;stroke-width:0.22874604"
         d="m 67.115685,81.461163 c 0,0 -0.08409,-0.515896 -0.133243,-0.511239 l -9.361153,0.903206 c -0.744866,0.07193 -1.323373,0.665956 -1.375635,1.412374 l -0.257172,3.686042 -7.242203,0.516672 -0.492611,-3.340645 C 48.143969,83.384517 47.495089,82.82438 46.744014,82.82438 H 36.86386 c -0.750817,0 -1.399697,0.560137 -1.509396,1.303193 l -0.492869,3.340645 -7.242203,-0.516672 -0.257172,-3.686042 c -0.05226,-0.746677 -0.630769,-1.340708 -1.375635,-1.412633 l -9.36581,-0.902947 c -0.04838,-0.0047 -0.08383,0.511756 -0.132208,0.511756 l -0.01268,2.02581 7.931962,1.279131 0.259759,3.718899 c 0.05252,0.752887 0.660005,1.361665 1.413409,1.415738 l 9.97407,0.711491 c 0.03777,0.0026 0.07503,0.0041 0.112286,0.0041 0.749524,0 1.397369,-0.560396 1.507068,-1.303452 l 0.50684,-3.437407 h 7.245567 l 0.50684,3.437407 c 0.10944,0.742797 0.758061,1.303193 1.50862,1.303193 0.03674,0 0.07348,-0.0013 0.10944,-0.0039 l 9.975364,-0.711491 c 0.753145,-0.05407 1.360888,-0.662851 1.413409,-1.415738 l 0.2595,-3.718899 7.928598,-1.284823 z" />
      <path
         inkscape:connector-curvature="0"
         id="path84"
         style="fill:#478cbf;fill-opacity:1;fill-rule:nonzero;stroke:none;stroke-width:0.22874604"
         d="m 16.48846,66.185838 v 12.293014 1.561399 1.420912 c 0.02794,2.59e-4 0.05588,0.0013 0.08357,0.0039 l 9.364775,0.902947 c 0.490541,0.04735 0.875005,0.44216 0.909156,0.933735 l 0.288736,4.133893 8.168953,0.582905 0.562724,-3.815403 c 0.07296,-0.494681 0.497268,-0.861293 0.99764,-0.861293 h 9.880154 c 0.500113,0 0.92442,0.366612 0.997381,0.861293 l 0.562724,3.815403 8.169212,-0.582905 0.288477,-4.133893 c 0.03441,-0.491575 0.418615,-0.88613 0.909156,-0.933735 l 9.361153,-0.902947 c 0.02768,-0.0026 0.05537,-0.0036 0.08331,-0.0039 v -1.218848 l 0.0039,-0.0013 V 66.185838 h 0.03467 c 1.240582,-1.583391 2.38854,-3.251902 3.489411,-5.031924 -1.462049,-2.488925 -3.253455,-4.713175 -5.168271,-6.773912 -1.775882,0.893891 -3.500795,1.906537 -5.12998,2.984123 -0.81524,-0.810324 -1.733451,-1.473175 -2.635363,-2.166038 -0.88613,-0.71175 -1.884805,-1.233596 -2.831993,-1.841597 0.282009,-2.100063 0.421461,-4.167527 0.477604,-6.325286 -2.443907,-1.229974 -5.050034,-2.045472 -7.686173,-2.631223 -1.05249,1.768896 -2.014943,3.684489 -2.853209,5.557133 -0.994018,-0.1661 -1.992692,-0.227677 -2.992661,-0.239578 v -0.0016 c -0.007,0 -0.01345,0.0016 -0.0194,0.0016 -0.0062,0 -0.01268,-0.0016 -0.01889,-0.0016 v 0.0016 c -1.001779,0.0119 -1.999678,0.07348 -2.993954,0.239578 -0.837749,-1.872644 -1.799685,-3.788237 -2.853726,-5.557133 -2.634846,0.585751 -5.241232,1.401249 -7.68488,2.631223 0.05588,2.157759 0.195336,4.225223 0.478122,6.325286 -0.949,0.608001 -1.946381,1.129847 -2.83277,1.841597 -0.900618,0.692863 -1.820382,1.355714 -2.63588,2.166038 -1.629185,-1.077586 -3.353581,-2.090232 -5.12998,-2.984123 -1.914817,2.060737 -3.705187,4.284987 -5.167754,6.773912 1.100353,1.780022 2.249088,3.448533 3.489411,5.031924 z" />
      <path
         inkscape:connector-curvature="0"
         id="path88"
         style="fill:#478cbf;fill-opacity:1;fill-rule:nonzero;stroke:none;stroke-width:0.22874604"
         d="m 58.714346,84.293598 -0.29003,4.155884 c -0.03493,0.50089 -0.433362,0.899584 -0.934252,0.935546 l -9.975105,0.71175 c -0.02432,0.0018 -0.04864,0.0026 -0.0727,0.0026 -0.495715,0 -0.923386,-0.363766 -0.996605,-0.861551 l -0.572038,-3.879308 h -8.1392 l -0.572038,3.879308 c -0.07684,0.522105 -0.54358,0.897514 -1.069307,0.858964 l -9.975105,-0.71175 c -0.50089,-0.03596 -0.899325,-0.434656 -0.934252,-0.935546 l -0.29003,-4.155884 -8.420691,-0.811876 c 0.0039,0.905017 0.01552,1.896447 0.01552,2.093854 0,8.893379 11.281661,13.168018 25.298294,13.217175 h 0.01708 0.01733 c 14.016633,-0.04916 25.294414,-4.323796 25.294414,-13.217175 0,-0.201029 0.01216,-1.18832 0.0163,-2.093854 z" />
      <path
         inkscape:connector-curvature="0"
         id="path92"
         style="fill:#ffffff;fill-opacity:1;fill-rule:nonzero;stroke:none;stroke-width:0.22874604"
         d="m 34.172328,72.386602 c 0,3.118142 -2.52644,5.644065 -5.643547,5.644065 -3.115555,0 -5.642771,-2.525923 -5.642771,-5.644065 0,-3.116072 2.527216,-5.640701 5.642771,-5.640701 3.117107,0 5.643547,2.524629 5.643547,5.640701" />
      <path
         inkscape:connector-curvature="0"
         id="path96"
         style="fill:#414042;fill-opacity:1;fill-rule:nonzero;stroke:none;stroke-width:0.22874604"
         d="m 32.814387,72.721339 c 0,2.06824 -1.676273,3.744513 -3.746065,3.744513 -2.068758,0 -3.746065,-1.676273 -3.746065,-3.744513 0,-2.06824 1.677307,-3.746065 3.746065,-3.746065 2.069792,0 3.746065,1.677825 3.746065,3.746065" />
      <path
         inkscape:connector-curvature="0"
         id="path100"
         style="fill:#ffffff;fill-opacity:1;fill-rule:nonzero;stroke:none;stroke-width:0.22874604"
         d="m 41.803546,78.54413 c -1.003332,0 -1.816501,-0.739433 -1.816501,-1.650918 v -5.195437 c 0,-0.910709 0.813169,-1.650918 1.816501,-1.650918 1.003332,0 1.818312,0.740209 1.818312,1.650918 v 5.195437 c 0,0.911485 -0.81498,1.650918 -1.818312,1.650918" />
      <path
         inkscape:connector-curvature="0"
         id="path104"
         style="fill:#ffffff;fill-opacity:1;fill-rule:nonzero;stroke:none;stroke-width:0.22874604"
         d="m 49.435703,72.386602 c 0,3.118142 2.52644,5.644065 5.644065,5.644065 3.115296,0 5.642253,-2.525923 5.642253,-5.644065 0,-3.116072 -2.526957,-5.640701 -5.642253,-5.640701 -3.117625,0 -5.644065,2.524629 -5.644065,5.640701" />
      <path
         inkscape:connector-curvature="0"
         id="path108"
         style="fill:#414042;fill-opacity:1;fill-rule:nonzero;stroke:none;stroke-width:0.22874604"
         d="m 50.793975,72.721339 c 0,2.06824 1.675756,3.744513 3.743995,3.744513 2.07031,0 3.746066,-1.676273 3.746066,-3.744513 0,-2.06824 -1.675756,-3.746065 -3.746066,-3.746065 -2.068239,0 -3.743995,1.677825 -3.743995,3.746065" />
    </g>
  </g>
</svg>
